<mxfile host="app.diagrams.net" modified="2023-12-19T07:53:40.583Z" agent="Mozilla/5.0 (Macintosh; Intel Mac OS X 10_15_7) AppleWebKit/537.36 (KHTML, like Gecko) Chrome/120.0.0.0 Safari/537.36" etag="rm2DJtNwh_MXg7ctBs_z" version="22.1.11" type="device">
  <diagram name="Sayfa -1" id="b2mTxc1LxdoqnN61zUXQ">
    <mxGraphModel dx="1994" dy="1000" grid="1" gridSize="10" guides="1" tooltips="1" connect="1" arrows="1" fold="1" page="1" pageScale="1" pageWidth="827" pageHeight="1169" math="0" shadow="0">
      <root>
        <mxCell id="0" />
        <mxCell id="1" parent="0" />
        <mxCell id="0oOpGqbblm02cXaxM-G--1" value="Başlangıç / Bitiş" style="ellipse;whiteSpace=wrap;html=1;" parent="1" vertex="1">
          <mxGeometry x="40" y="40" width="120" height="80" as="geometry" />
        </mxCell>
        <mxCell id="0oOpGqbblm02cXaxM-G--2" value="Değer Atama / İşlem" style="rounded=0;whiteSpace=wrap;html=1;" parent="1" vertex="1">
          <mxGeometry x="40" y="140" width="120" height="60" as="geometry" />
        </mxCell>
        <mxCell id="0oOpGqbblm02cXaxM-G--3" value="Koşul" style="rhombus;whiteSpace=wrap;html=1;" parent="1" vertex="1">
          <mxGeometry x="60" y="220" width="80" height="80" as="geometry" />
        </mxCell>
        <mxCell id="0oOpGqbblm02cXaxM-G--4" value="Girdi" style="shape=parallelogram;perimeter=parallelogramPerimeter;whiteSpace=wrap;html=1;fixedSize=1;" parent="1" vertex="1">
          <mxGeometry x="40" y="320" width="120" height="60" as="geometry" />
        </mxCell>
        <mxCell id="0oOpGqbblm02cXaxM-G--5" value="Ekrana Yazdırma" style="shape=document;whiteSpace=wrap;html=1;boundedLbl=1;" parent="1" vertex="1">
          <mxGeometry x="40" y="400" width="120" height="80" as="geometry" />
        </mxCell>
        <mxCell id="0oOpGqbblm02cXaxM-G--6" value="Döngü&amp;nbsp;&lt;br&gt;(değer atama; şart; işlem)" style="shape=hexagon;perimeter=hexagonPerimeter2;whiteSpace=wrap;html=1;fixedSize=1;" parent="1" vertex="1">
          <mxGeometry x="40" y="504.5" width="120" height="80" as="geometry" />
        </mxCell>
        <mxCell id="0oOpGqbblm02cXaxM-G--9" style="edgeStyle=orthogonalEdgeStyle;rounded=0;orthogonalLoop=1;jettySize=auto;html=1;entryX=0.5;entryY=0;entryDx=0;entryDy=0;" parent="1" source="0oOpGqbblm02cXaxM-G--7" target="0oOpGqbblm02cXaxM-G--8" edge="1">
          <mxGeometry relative="1" as="geometry" />
        </mxCell>
        <mxCell id="0oOpGqbblm02cXaxM-G--7" value="basla" style="ellipse;whiteSpace=wrap;html=1;" parent="1" vertex="1">
          <mxGeometry x="200" y="40" width="120" height="80" as="geometry" />
        </mxCell>
        <mxCell id="0oOpGqbblm02cXaxM-G--11" style="edgeStyle=orthogonalEdgeStyle;rounded=0;orthogonalLoop=1;jettySize=auto;html=1;entryX=0.5;entryY=0;entryDx=0;entryDy=0;" parent="1" source="0oOpGqbblm02cXaxM-G--8" target="0oOpGqbblm02cXaxM-G--10" edge="1">
          <mxGeometry relative="1" as="geometry" />
        </mxCell>
        <mxCell id="0oOpGqbblm02cXaxM-G--8" value="sonuc = 3 + 5" style="rounded=0;whiteSpace=wrap;html=1;" parent="1" vertex="1">
          <mxGeometry x="200" y="160" width="120" height="60" as="geometry" />
        </mxCell>
        <mxCell id="0oOpGqbblm02cXaxM-G--13" style="edgeStyle=orthogonalEdgeStyle;rounded=0;orthogonalLoop=1;jettySize=auto;html=1;entryX=0.5;entryY=0;entryDx=0;entryDy=0;" parent="1" source="0oOpGqbblm02cXaxM-G--10" target="0oOpGqbblm02cXaxM-G--12" edge="1">
          <mxGeometry relative="1" as="geometry" />
        </mxCell>
        <mxCell id="0oOpGqbblm02cXaxM-G--10" value="sonuc" style="shape=document;whiteSpace=wrap;html=1;boundedLbl=1;" parent="1" vertex="1">
          <mxGeometry x="200" y="250" width="120" height="80" as="geometry" />
        </mxCell>
        <mxCell id="0oOpGqbblm02cXaxM-G--12" value="son" style="ellipse;whiteSpace=wrap;html=1;" parent="1" vertex="1">
          <mxGeometry x="200" y="360" width="120" height="80" as="geometry" />
        </mxCell>
        <mxCell id="0oOpGqbblm02cXaxM-G--18" style="edgeStyle=orthogonalEdgeStyle;rounded=0;orthogonalLoop=1;jettySize=auto;html=1;exitX=0.5;exitY=1;exitDx=0;exitDy=0;" parent="1" source="0oOpGqbblm02cXaxM-G--14" target="0oOpGqbblm02cXaxM-G--15" edge="1">
          <mxGeometry relative="1" as="geometry" />
        </mxCell>
        <mxCell id="0oOpGqbblm02cXaxM-G--14" value="basla" style="ellipse;whiteSpace=wrap;html=1;" parent="1" vertex="1">
          <mxGeometry x="360" y="40" width="120" height="80" as="geometry" />
        </mxCell>
        <mxCell id="0oOpGqbblm02cXaxM-G--19" style="edgeStyle=orthogonalEdgeStyle;rounded=0;orthogonalLoop=1;jettySize=auto;html=1;exitX=0.5;exitY=1;exitDx=0;exitDy=0;entryX=0.5;entryY=0;entryDx=0;entryDy=0;" parent="1" source="0oOpGqbblm02cXaxM-G--15" target="0oOpGqbblm02cXaxM-G--16" edge="1">
          <mxGeometry relative="1" as="geometry" />
        </mxCell>
        <mxCell id="0oOpGqbblm02cXaxM-G--15" value="sayi1" style="shape=parallelogram;perimeter=parallelogramPerimeter;whiteSpace=wrap;html=1;fixedSize=1;" parent="1" vertex="1">
          <mxGeometry x="360" y="160" width="120" height="60" as="geometry" />
        </mxCell>
        <mxCell id="0oOpGqbblm02cXaxM-G--20" value="" style="edgeStyle=orthogonalEdgeStyle;rounded=0;orthogonalLoop=1;jettySize=auto;html=1;" parent="1" source="0oOpGqbblm02cXaxM-G--16" target="0oOpGqbblm02cXaxM-G--17" edge="1">
          <mxGeometry relative="1" as="geometry" />
        </mxCell>
        <mxCell id="0oOpGqbblm02cXaxM-G--16" value="sayi1" style="shape=document;whiteSpace=wrap;html=1;boundedLbl=1;" parent="1" vertex="1">
          <mxGeometry x="360" y="250" width="120" height="80" as="geometry" />
        </mxCell>
        <mxCell id="0oOpGqbblm02cXaxM-G--17" value="son" style="ellipse;whiteSpace=wrap;html=1;" parent="1" vertex="1">
          <mxGeometry x="360" y="360" width="120" height="80" as="geometry" />
        </mxCell>
        <mxCell id="0oOpGqbblm02cXaxM-G--26" value="" style="edgeStyle=orthogonalEdgeStyle;rounded=0;orthogonalLoop=1;jettySize=auto;html=1;" parent="1" source="0oOpGqbblm02cXaxM-G--21" target="0oOpGqbblm02cXaxM-G--23" edge="1">
          <mxGeometry relative="1" as="geometry" />
        </mxCell>
        <mxCell id="0oOpGqbblm02cXaxM-G--21" value="basla" style="ellipse;whiteSpace=wrap;html=1;" parent="1" vertex="1">
          <mxGeometry x="520" y="40" width="120" height="80" as="geometry" />
        </mxCell>
        <mxCell id="0oOpGqbblm02cXaxM-G--27" value="" style="edgeStyle=orthogonalEdgeStyle;rounded=0;orthogonalLoop=1;jettySize=auto;html=1;" parent="1" source="0oOpGqbblm02cXaxM-G--23" target="0oOpGqbblm02cXaxM-G--24" edge="1">
          <mxGeometry relative="1" as="geometry" />
        </mxCell>
        <mxCell id="0oOpGqbblm02cXaxM-G--23" value="i = 0; i &amp;lt; 10; i++" style="shape=hexagon;perimeter=hexagonPerimeter2;whiteSpace=wrap;html=1;fixedSize=1;" parent="1" vertex="1">
          <mxGeometry x="520" y="160" width="120" height="70" as="geometry" />
        </mxCell>
        <mxCell id="0oOpGqbblm02cXaxM-G--28" value="" style="edgeStyle=orthogonalEdgeStyle;rounded=0;orthogonalLoop=1;jettySize=auto;html=1;" parent="1" source="0oOpGqbblm02cXaxM-G--24" target="0oOpGqbblm02cXaxM-G--25" edge="1">
          <mxGeometry relative="1" as="geometry" />
        </mxCell>
        <mxCell id="0oOpGqbblm02cXaxM-G--24" value="i" style="shape=document;whiteSpace=wrap;html=1;boundedLbl=1;" parent="1" vertex="1">
          <mxGeometry x="520" y="250" width="120" height="80" as="geometry" />
        </mxCell>
        <mxCell id="0oOpGqbblm02cXaxM-G--25" value="son" style="ellipse;whiteSpace=wrap;html=1;" parent="1" vertex="1">
          <mxGeometry x="520" y="360" width="120" height="80" as="geometry" />
        </mxCell>
        <mxCell id="0oOpGqbblm02cXaxM-G--33" value="" style="endArrow=classic;html=1;rounded=0;entryX=1;entryY=0.5;entryDx=0;entryDy=0;" parent="1" target="0oOpGqbblm02cXaxM-G--23" edge="1">
          <mxGeometry width="50" height="50" relative="1" as="geometry">
            <mxPoint x="640" y="280" as="sourcePoint" />
            <mxPoint x="690" y="230" as="targetPoint" />
            <Array as="points">
              <mxPoint x="680" y="280" />
              <mxPoint x="680" y="240" />
              <mxPoint x="680" y="195" />
            </Array>
          </mxGeometry>
        </mxCell>
        <mxCell id="0oOpGqbblm02cXaxM-G--34" value="" style="endArrow=classic;html=1;rounded=0;exitX=0;exitY=0.5;exitDx=0;exitDy=0;entryX=0;entryY=0.5;entryDx=0;entryDy=0;" parent="1" source="0oOpGqbblm02cXaxM-G--23" target="0oOpGqbblm02cXaxM-G--25" edge="1">
          <mxGeometry width="50" height="50" relative="1" as="geometry">
            <mxPoint x="510" y="450" as="sourcePoint" />
            <mxPoint x="560" y="400" as="targetPoint" />
            <Array as="points">
              <mxPoint x="500" y="195" />
              <mxPoint x="500" y="240" />
              <mxPoint x="500" y="300" />
              <mxPoint x="500" y="400" />
            </Array>
          </mxGeometry>
        </mxCell>
        <mxCell id="0oOpGqbblm02cXaxM-G--51" value="" style="edgeStyle=orthogonalEdgeStyle;rounded=0;orthogonalLoop=1;jettySize=auto;html=1;" parent="1" source="0oOpGqbblm02cXaxM-G--41" target="0oOpGqbblm02cXaxM-G--43" edge="1">
          <mxGeometry relative="1" as="geometry" />
        </mxCell>
        <mxCell id="0oOpGqbblm02cXaxM-G--41" value="basla" style="ellipse;whiteSpace=wrap;html=1;" parent="1" vertex="1">
          <mxGeometry x="960" y="40" width="120" height="80" as="geometry" />
        </mxCell>
        <mxCell id="0oOpGqbblm02cXaxM-G--42" value="Soru 1:&lt;br&gt;Sınıfta yer alan öğrenci sayısı&lt;br&gt;kullanıcıdan istendikten sonra, &lt;br&gt;sınıftaki ayakkabı numarasının &lt;br&gt;ortalamasını alan algoritmayı çiziniz." style="text;html=1;align=center;verticalAlign=middle;resizable=0;points=[];autosize=1;strokeColor=none;fillColor=none;" parent="1" vertex="1">
          <mxGeometry x="730" y="35" width="220" height="90" as="geometry" />
        </mxCell>
        <mxCell id="0oOpGqbblm02cXaxM-G--52" value="" style="edgeStyle=orthogonalEdgeStyle;rounded=0;orthogonalLoop=1;jettySize=auto;html=1;" parent="1" source="0oOpGqbblm02cXaxM-G--43" target="0oOpGqbblm02cXaxM-G--46" edge="1">
          <mxGeometry relative="1" as="geometry" />
        </mxCell>
        <mxCell id="0oOpGqbblm02cXaxM-G--43" value="sinif_mevcudu" style="shape=parallelogram;perimeter=parallelogramPerimeter;whiteSpace=wrap;html=1;fixedSize=1;" parent="1" vertex="1">
          <mxGeometry x="960" y="160" width="120" height="60" as="geometry" />
        </mxCell>
        <mxCell id="0oOpGqbblm02cXaxM-G--54" value="" style="edgeStyle=orthogonalEdgeStyle;rounded=0;orthogonalLoop=1;jettySize=auto;html=1;" parent="1" source="0oOpGqbblm02cXaxM-G--44" target="0oOpGqbblm02cXaxM-G--45" edge="1">
          <mxGeometry relative="1" as="geometry" />
        </mxCell>
        <mxCell id="0oOpGqbblm02cXaxM-G--56" value="" style="edgeStyle=orthogonalEdgeStyle;rounded=0;orthogonalLoop=1;jettySize=auto;html=1;" parent="1" source="0oOpGqbblm02cXaxM-G--44" edge="1">
          <mxGeometry relative="1" as="geometry">
            <mxPoint x="1170" y="400" as="targetPoint" />
          </mxGeometry>
        </mxCell>
        <mxCell id="0oOpGqbblm02cXaxM-G--44" value="i = 0; i &amp;lt; sinif_mevcudu; i++" style="shape=hexagon;perimeter=hexagonPerimeter2;whiteSpace=wrap;html=1;fixedSize=1;" parent="1" vertex="1">
          <mxGeometry x="930" y="360" width="180" height="80" as="geometry" />
        </mxCell>
        <mxCell id="0oOpGqbblm02cXaxM-G--55" value="" style="edgeStyle=orthogonalEdgeStyle;rounded=0;orthogonalLoop=1;jettySize=auto;html=1;" parent="1" source="0oOpGqbblm02cXaxM-G--45" target="0oOpGqbblm02cXaxM-G--47" edge="1">
          <mxGeometry relative="1" as="geometry" />
        </mxCell>
        <mxCell id="0oOpGqbblm02cXaxM-G--45" value="a_no" style="shape=parallelogram;perimeter=parallelogramPerimeter;whiteSpace=wrap;html=1;fixedSize=1;" parent="1" vertex="1">
          <mxGeometry x="960" y="480" width="120" height="60" as="geometry" />
        </mxCell>
        <mxCell id="0oOpGqbblm02cXaxM-G--53" value="" style="edgeStyle=orthogonalEdgeStyle;rounded=0;orthogonalLoop=1;jettySize=auto;html=1;" parent="1" source="0oOpGqbblm02cXaxM-G--46" target="0oOpGqbblm02cXaxM-G--44" edge="1">
          <mxGeometry relative="1" as="geometry" />
        </mxCell>
        <mxCell id="0oOpGqbblm02cXaxM-G--46" value="toplam = 0" style="rounded=0;whiteSpace=wrap;html=1;" parent="1" vertex="1">
          <mxGeometry x="960" y="260" width="120" height="60" as="geometry" />
        </mxCell>
        <mxCell id="0oOpGqbblm02cXaxM-G--59" style="edgeStyle=orthogonalEdgeStyle;rounded=0;orthogonalLoop=1;jettySize=auto;html=1;entryX=0;entryY=0.5;entryDx=0;entryDy=0;" parent="1" source="0oOpGqbblm02cXaxM-G--47" target="0oOpGqbblm02cXaxM-G--44" edge="1">
          <mxGeometry relative="1" as="geometry">
            <Array as="points">
              <mxPoint x="910" y="615" />
              <mxPoint x="910" y="400" />
            </Array>
          </mxGeometry>
        </mxCell>
        <mxCell id="0oOpGqbblm02cXaxM-G--47" value="toplam = toplam + a_no&amp;nbsp;&lt;br&gt;toplam += a_no" style="rounded=0;whiteSpace=wrap;html=1;" parent="1" vertex="1">
          <mxGeometry x="945" y="585" width="150" height="60" as="geometry" />
        </mxCell>
        <mxCell id="0oOpGqbblm02cXaxM-G--57" value="" style="edgeStyle=orthogonalEdgeStyle;rounded=0;orthogonalLoop=1;jettySize=auto;html=1;" parent="1" target="0oOpGqbblm02cXaxM-G--49" edge="1">
          <mxGeometry relative="1" as="geometry">
            <mxPoint x="1240" y="440" as="sourcePoint" />
          </mxGeometry>
        </mxCell>
        <mxCell id="0oOpGqbblm02cXaxM-G--58" value="" style="edgeStyle=orthogonalEdgeStyle;rounded=0;orthogonalLoop=1;jettySize=auto;html=1;" parent="1" source="0oOpGqbblm02cXaxM-G--49" target="0oOpGqbblm02cXaxM-G--50" edge="1">
          <mxGeometry relative="1" as="geometry" />
        </mxCell>
        <mxCell id="0oOpGqbblm02cXaxM-G--49" value="sonuc" style="shape=document;whiteSpace=wrap;html=1;boundedLbl=1;" parent="1" vertex="1">
          <mxGeometry x="1180" y="470" width="120" height="80" as="geometry" />
        </mxCell>
        <mxCell id="0oOpGqbblm02cXaxM-G--50" value="son" style="ellipse;whiteSpace=wrap;html=1;" parent="1" vertex="1">
          <mxGeometry x="1181" y="575" width="120" height="80" as="geometry" />
        </mxCell>
        <mxCell id="0oOpGqbblm02cXaxM-G--60" value="Soru 2:&lt;br&gt;Dik üçgenin iki kenarı&lt;br&gt;kullanıcıdan istenildikten sonra,&lt;br&gt;hipotenüsü hesaplayan akış &lt;br&gt;diyagramı yazınız." style="text;html=1;align=center;verticalAlign=middle;resizable=0;points=[];autosize=1;strokeColor=none;fillColor=none;" parent="1" vertex="1">
          <mxGeometry x="1400" y="35" width="190" height="90" as="geometry" />
        </mxCell>
        <mxCell id="0oOpGqbblm02cXaxM-G--61" value="Soru 3:&lt;br&gt;Sınıf mevcudu kullanıcıdan istendikten&lt;br&gt;sonra, sınıf puan ortalaması&lt;br&gt;hesaplayan diyagramı&lt;br&gt;yazınız. (vizenin 40% finalin 60%)" style="text;html=1;align=center;verticalAlign=middle;resizable=0;points=[];autosize=1;strokeColor=none;fillColor=none;" parent="1" vertex="1">
          <mxGeometry x="1953" y="40" width="230" height="90" as="geometry" />
        </mxCell>
        <mxCell id="0oOpGqbblm02cXaxM-G--70" value="" style="edgeStyle=orthogonalEdgeStyle;rounded=0;orthogonalLoop=1;jettySize=auto;html=1;" parent="1" source="0oOpGqbblm02cXaxM-G--62" target="0oOpGqbblm02cXaxM-G--63" edge="1">
          <mxGeometry relative="1" as="geometry" />
        </mxCell>
        <mxCell id="0oOpGqbblm02cXaxM-G--62" value="basla" style="ellipse;whiteSpace=wrap;html=1;" parent="1" vertex="1">
          <mxGeometry x="1690" y="40" width="120" height="80" as="geometry" />
        </mxCell>
        <mxCell id="0oOpGqbblm02cXaxM-G--71" value="" style="edgeStyle=orthogonalEdgeStyle;rounded=0;orthogonalLoop=1;jettySize=auto;html=1;" parent="1" source="0oOpGqbblm02cXaxM-G--63" target="0oOpGqbblm02cXaxM-G--64" edge="1">
          <mxGeometry relative="1" as="geometry" />
        </mxCell>
        <mxCell id="0oOpGqbblm02cXaxM-G--63" value="hip, kenar1, kenar2" style="rounded=0;whiteSpace=wrap;html=1;" parent="1" vertex="1">
          <mxGeometry x="1690" y="150" width="120" height="60" as="geometry" />
        </mxCell>
        <mxCell id="0oOpGqbblm02cXaxM-G--72" value="" style="edgeStyle=orthogonalEdgeStyle;rounded=0;orthogonalLoop=1;jettySize=auto;html=1;" parent="1" source="0oOpGqbblm02cXaxM-G--64" target="0oOpGqbblm02cXaxM-G--65" edge="1">
          <mxGeometry relative="1" as="geometry" />
        </mxCell>
        <mxCell id="0oOpGqbblm02cXaxM-G--64" value="kenar1, kenar2" style="shape=parallelogram;perimeter=parallelogramPerimeter;whiteSpace=wrap;html=1;fixedSize=1;" parent="1" vertex="1">
          <mxGeometry x="1690" y="260" width="120" height="60" as="geometry" />
        </mxCell>
        <mxCell id="0oOpGqbblm02cXaxM-G--76" value="" style="edgeStyle=orthogonalEdgeStyle;rounded=0;orthogonalLoop=1;jettySize=auto;html=1;" parent="1" source="0oOpGqbblm02cXaxM-G--65" target="0oOpGqbblm02cXaxM-G--75" edge="1">
          <mxGeometry relative="1" as="geometry" />
        </mxCell>
        <mxCell id="0oOpGqbblm02cXaxM-G--65" value="hip = (kenar1)^2 + (kenar2)^2&amp;nbsp;" style="rounded=0;whiteSpace=wrap;html=1;" parent="1" vertex="1">
          <mxGeometry x="1645" y="370" width="210" height="60" as="geometry" />
        </mxCell>
        <mxCell id="0oOpGqbblm02cXaxM-G--74" value="" style="edgeStyle=orthogonalEdgeStyle;rounded=0;orthogonalLoop=1;jettySize=auto;html=1;" parent="1" source="0oOpGqbblm02cXaxM-G--67" target="0oOpGqbblm02cXaxM-G--68" edge="1">
          <mxGeometry relative="1" as="geometry" />
        </mxCell>
        <mxCell id="0oOpGqbblm02cXaxM-G--67" value="&quot;Hipotenüs&quot; = hip" style="shape=document;whiteSpace=wrap;html=1;boundedLbl=1;" parent="1" vertex="1">
          <mxGeometry x="1690" y="575" width="120" height="80" as="geometry" />
        </mxCell>
        <mxCell id="0oOpGqbblm02cXaxM-G--68" value="son" style="ellipse;whiteSpace=wrap;html=1;" parent="1" vertex="1">
          <mxGeometry x="1690" y="695" width="120" height="80" as="geometry" />
        </mxCell>
        <mxCell id="0oOpGqbblm02cXaxM-G--77" value="" style="edgeStyle=orthogonalEdgeStyle;rounded=0;orthogonalLoop=1;jettySize=auto;html=1;" parent="1" source="0oOpGqbblm02cXaxM-G--75" target="0oOpGqbblm02cXaxM-G--67" edge="1">
          <mxGeometry relative="1" as="geometry" />
        </mxCell>
        <mxCell id="0oOpGqbblm02cXaxM-G--75" value="hip = sqrt(hip)" style="rounded=0;whiteSpace=wrap;html=1;" parent="1" vertex="1">
          <mxGeometry x="1690" y="470" width="120" height="60" as="geometry" />
        </mxCell>
        <mxCell id="0oOpGqbblm02cXaxM-G--88" value="" style="edgeStyle=orthogonalEdgeStyle;rounded=0;orthogonalLoop=1;jettySize=auto;html=1;" parent="1" source="0oOpGqbblm02cXaxM-G--78" target="0oOpGqbblm02cXaxM-G--81" edge="1">
          <mxGeometry relative="1" as="geometry" />
        </mxCell>
        <mxCell id="0oOpGqbblm02cXaxM-G--78" value="basla" style="ellipse;whiteSpace=wrap;html=1;" parent="1" vertex="1">
          <mxGeometry x="2310" y="45" width="120" height="80" as="geometry" />
        </mxCell>
        <mxCell id="0oOpGqbblm02cXaxM-G--89" value="" style="edgeStyle=orthogonalEdgeStyle;rounded=0;orthogonalLoop=1;jettySize=auto;html=1;" parent="1" source="0oOpGqbblm02cXaxM-G--81" target="0oOpGqbblm02cXaxM-G--83" edge="1">
          <mxGeometry relative="1" as="geometry" />
        </mxCell>
        <mxCell id="0oOpGqbblm02cXaxM-G--81" value="sinif_mevcudu, vize, final, ort, sonuc" style="rounded=0;whiteSpace=wrap;html=1;" parent="1" vertex="1">
          <mxGeometry x="2310" y="170" width="120" height="60" as="geometry" />
        </mxCell>
        <mxCell id="0oOpGqbblm02cXaxM-G--90" value="" style="edgeStyle=orthogonalEdgeStyle;rounded=0;orthogonalLoop=1;jettySize=auto;html=1;" parent="1" source="0oOpGqbblm02cXaxM-G--83" target="0oOpGqbblm02cXaxM-G--84" edge="1">
          <mxGeometry relative="1" as="geometry" />
        </mxCell>
        <mxCell id="0oOpGqbblm02cXaxM-G--83" value="sinif_mevcudu" style="shape=parallelogram;perimeter=parallelogramPerimeter;whiteSpace=wrap;html=1;fixedSize=1;" parent="1" vertex="1">
          <mxGeometry x="2310" y="280" width="120" height="60" as="geometry" />
        </mxCell>
        <mxCell id="0oOpGqbblm02cXaxM-G--91" value="" style="edgeStyle=orthogonalEdgeStyle;rounded=0;orthogonalLoop=1;jettySize=auto;html=1;" parent="1" source="0oOpGqbblm02cXaxM-G--84" target="0oOpGqbblm02cXaxM-G--85" edge="1">
          <mxGeometry relative="1" as="geometry" />
        </mxCell>
        <mxCell id="0oOpGqbblm02cXaxM-G--99" value="" style="edgeStyle=orthogonalEdgeStyle;rounded=0;orthogonalLoop=1;jettySize=auto;html=1;" parent="1" source="0oOpGqbblm02cXaxM-G--84" edge="1">
          <mxGeometry relative="1" as="geometry">
            <mxPoint x="2218" y="420" as="targetPoint" />
          </mxGeometry>
        </mxCell>
        <mxCell id="0oOpGqbblm02cXaxM-G--84" value="i = 0; i &amp;lt; sinif_mevcudu; i++" style="shape=hexagon;perimeter=hexagonPerimeter2;whiteSpace=wrap;html=1;fixedSize=1;" parent="1" vertex="1">
          <mxGeometry x="2280" y="380" width="180" height="80" as="geometry" />
        </mxCell>
        <mxCell id="0oOpGqbblm02cXaxM-G--92" value="" style="edgeStyle=orthogonalEdgeStyle;rounded=0;orthogonalLoop=1;jettySize=auto;html=1;" parent="1" source="0oOpGqbblm02cXaxM-G--85" target="0oOpGqbblm02cXaxM-G--86" edge="1">
          <mxGeometry relative="1" as="geometry" />
        </mxCell>
        <mxCell id="0oOpGqbblm02cXaxM-G--85" value="vize, final" style="shape=parallelogram;perimeter=parallelogramPerimeter;whiteSpace=wrap;html=1;fixedSize=1;" parent="1" vertex="1">
          <mxGeometry x="2310" y="504.5" width="120" height="60" as="geometry" />
        </mxCell>
        <mxCell id="0oOpGqbblm02cXaxM-G--87" style="edgeStyle=orthogonalEdgeStyle;rounded=0;orthogonalLoop=1;jettySize=auto;html=1;entryX=1;entryY=0.5;entryDx=0;entryDy=0;" parent="1" source="0oOpGqbblm02cXaxM-G--86" target="0oOpGqbblm02cXaxM-G--84" edge="1">
          <mxGeometry relative="1" as="geometry">
            <Array as="points">
              <mxPoint x="2520" y="640" />
              <mxPoint x="2520" y="420" />
            </Array>
          </mxGeometry>
        </mxCell>
        <mxCell id="0oOpGqbblm02cXaxM-G--86" value="ort += ((vize * 40) + (final * 60)) / 100" style="rounded=0;whiteSpace=wrap;html=1;" parent="1" vertex="1">
          <mxGeometry x="2262.5" y="610" width="215" height="60" as="geometry" />
        </mxCell>
        <mxCell id="0oOpGqbblm02cXaxM-G--97" value="" style="edgeStyle=orthogonalEdgeStyle;rounded=0;orthogonalLoop=1;jettySize=auto;html=1;" parent="1" target="0oOpGqbblm02cXaxM-G--94" edge="1">
          <mxGeometry relative="1" as="geometry">
            <mxPoint x="2134" y="460" as="sourcePoint" />
          </mxGeometry>
        </mxCell>
        <mxCell id="0oOpGqbblm02cXaxM-G--98" value="" style="edgeStyle=orthogonalEdgeStyle;rounded=0;orthogonalLoop=1;jettySize=auto;html=1;" parent="1" source="0oOpGqbblm02cXaxM-G--94" target="0oOpGqbblm02cXaxM-G--96" edge="1">
          <mxGeometry relative="1" as="geometry" />
        </mxCell>
        <mxCell id="0oOpGqbblm02cXaxM-G--94" value="sonuc" style="shape=document;whiteSpace=wrap;html=1;boundedLbl=1;" parent="1" vertex="1">
          <mxGeometry x="2080" y="495" width="120" height="80" as="geometry" />
        </mxCell>
        <mxCell id="0oOpGqbblm02cXaxM-G--96" value="son" style="ellipse;whiteSpace=wrap;html=1;" parent="1" vertex="1">
          <mxGeometry x="2090" y="615" width="120" height="80" as="geometry" />
        </mxCell>
        <mxCell id="0oOpGqbblm02cXaxM-G--100" value="sonuc = ort / sinif_mevcudu" style="rounded=0;whiteSpace=wrap;html=1;" parent="1" vertex="1">
          <mxGeometry x="2050" y="380" width="170" height="80" as="geometry" />
        </mxCell>
        <mxCell id="axTLqa0g67gdNEKt555s-1" value="sonuc = toplam / sinif_mevcudu" style="rounded=0;whiteSpace=wrap;html=1;" vertex="1" parent="1">
          <mxGeometry x="1170" y="370" width="150" height="70" as="geometry" />
        </mxCell>
      </root>
    </mxGraphModel>
  </diagram>
</mxfile>
